<?xml version="1.0" encoding="UTF-8" standalone="no"?>
<!-- Created with Inkscape (http://www.inkscape.org/) -->

<svg
   version="1.1"
   id="svg1"
   width="2829.3333"
   height="2829.3333"
   viewBox="0 0 2829.3333 2829.3333"
   sodipodi:docname="leaves.eps"
   xmlns:inkscape="http://www.inkscape.org/namespaces/inkscape"
   xmlns:sodipodi="http://sodipodi.sourceforge.net/DTD/sodipodi-0.dtd"
   xmlns="http://www.w3.org/2000/svg"
   xmlns:svg="http://www.w3.org/2000/svg">
  <defs
     id="defs1" />
  <sodipodi:namedview
     id="namedview1"
     pagecolor="#ffffff"
     bordercolor="#000000"
     borderopacity="0.25"
     inkscape:showpageshadow="2"
     inkscape:pageopacity="0.0"
     inkscape:pagecheckerboard="0"
     inkscape:deskcolor="#d1d1d1">
    <inkscape:page
       x="0"
       y="0"
       inkscape:label="1"
       id="page1"
       width="2829.3333"
       height="2829.3333"
       margin="0"
       bleed="0" />
  </sodipodi:namedview>
  <g
     id="g1"
     inkscape:groupmode="layer"
     inkscape:label="1">
    <g
       id="group-R5">
      <path
         id="path2"
         d="m 17974.4,9873.2 -220.8,-37.5 c -0.1,-0.2 -0.3,-0.4 -0.5,-0.6 -362.5,-355.6 -531.9,-861.3 -639.8,-1357.5 -108.1,-496.5 -156.6,-1007.3 -313.4,-1490.5 -264,-813.7 -841.1,-1521.4 -1585,-1943.7 -288.2,-163.7 -600.5,-283.7 -923.4,-358.4 -3.7,-0.9 -7.5,-2 -11.3,-2.8 17.1,2.8 34,6.4 51,9.5 23.9,4.3 47.7,8.6 71.4,13.4 27.7,5.6 55.2,11.7 82.6,17.9 23.5,5.3 46.9,10.6 70.2,16.3 27.7,6.9 55.1,14.4 82.6,22 22.9,6.2 45.8,12.3 68.5,19 27.8,8.2 55.3,17.2 82.8,26.1 22.1,7.2 44.3,14 66.3,21.6 28,9.7 55.8,20.2 83.5,30.6 21.1,7.9 42.4,15.5 63.3,23.8 28.9,11.4 57.4,23.8 86,36.1 19.3,8.3 38.8,16.1 58.1,24.8 31.5,14.2 62.6,29.5 93.7,44.6 15.7,7.7 31.8,14.9 47.5,22.9 46.5,23.6 92.5,48.2 137.9,74 74.4,42.2 146.6,88 217.5,135.8 98,66 192.7,136.8 283.3,212.6 48.8,40.7 96.8,82.3 143.2,125.6 39.1,36.5 77.4,73.8 114.8,112 149.5,152.8 285.2,319.2 404.8,496.4 59.8,88.7 115.5,180 166.9,273.7 102.9,187.3 188.4,384.1 254.4,587.5 54.7,168.4 95.7,340.2 131.2,513.5 66.3,324.1 111.8,653.6 182.2,977.1 20.3,93.1 43,186.3 69.1,278.8 112.7,400.8 286.6,786.5 581.4,1075.4 v 0"
         style="fill:#37702e;fill-opacity:1;fill-rule:nonzero;stroke:none"
         transform="matrix(0.13333333,0,0,-0.13333333,0,2829.3333)" />
      <path
         id="path3"
         d="m 14204.6,9656.6 c -248,-764.5 -790.2,-1429.4 -1489.2,-1826.2 -270.8,-153.8 -564.2,-266.5 -867.5,-336.8 -3.6,-0.8 -7.1,-1.8 -10.7,-2.6 16.1,2.6 32,6.1 48.1,9 22.3,4 44.6,8 66.8,12.5 26.1,5.2 52,11 77.9,16.9 21.9,5 43.9,9.9 65.7,15.3 26.1,6.4 51.9,13.5 77.8,20.6 21.4,5.9 42.9,11.6 64.2,17.9 26.1,7.7 52.1,16.2 78,24.6 20.7,6.7 41.5,13.1 62.1,20.2 26.5,9.1 52.6,19.1 78.9,28.9 19.7,7.4 39.4,14.4 58.9,22.1 27.4,10.9 54.4,22.6 81.4,34.2 18,7.8 36.2,15.1 54,23.1 29.8,13.4 59.2,27.8 88.5,42.2 14.7,7.1 29.7,13.8 44.2,21.2 43.8,22.2 87,45.3 129.7,69.5 131,74.5 256.6,158.3 375.7,250.4 79.4,61.4 156,126.6 229.4,195.1 73.4,68.5 143.8,140.3 210.7,215.2 66.9,74.9 130.5,152.8 190.4,233.5 77.2,104 147.6,212.9 212.1,325.2 110.6,192.4 202.3,395.6 270.8,606.9 33.2,102.2 60.7,205.8 85.4,310.2 5.1,21.8 10.2,43.5 15.1,65.3 23.6,106.1 44.6,212.8 64,320 10.6,58.8 20.9,117.7 31.1,176.5 30.6,176.7 60.8,353.5 98.9,528.4 44.4,204.1 101.7,409.2 180.6,603.4 11.3,27.7 23,55.2 35.2,82.5 24.3,54.5 50.6,107.9 78.9,160.1 85,156.5 188.6,301.1 316.5,426.4 l -207.5,-35.3 c -0.1,-0.1 -0.3,-0.3 -0.4,-0.4 -340.6,-334.2 -499.8,-809.3 -601.2,-1275.6 -101.5,-466.4 -147.2,-946.3 -294.5,-1400.4"
         style="fill:#37702e;fill-opacity:1;fill-rule:nonzero;stroke:none"
         transform="matrix(0.13333333,0,0,-0.13333333,0,2829.3333)" />
      <path
         id="path4"
         d="m 12287.7,12474.7 c -228,-702.8 -726.4,-1314 -1368.9,-1678.8 -249,-141.3 -518.7,-245 -797.6,-309.5 -3.2,-0.8 -6.5,-1.7 -9.7,-2.5 14.7,2.5 29.4,5.6 44.1,8.3 20.5,3.7 41.1,7.4 61.5,11.5 24,4.8 47.8,10.2 71.6,15.6 20.1,4.5 40.3,9 60.4,14 23.9,5.9 47.7,12.5 71.5,19 19.7,5.4 39.4,10.6 59,16.4 24,7.1 47.8,14.9 71.6,22.6 19.1,6.1 38.2,12.1 57.2,18.6 24.3,8.4 48.3,17.5 72.4,26.5 18.1,6.8 36.4,13.3 54.4,20.4 24.9,10 49.6,20.7 74.3,31.3 16.7,7.1 33.6,13.9 50.1,21.4 27.2,12.2 53.9,25.3 80.7,38.4 13.7,6.7 27.7,13 41.3,19.9 40.2,20.4 79.9,41.6 119.1,63.9 241,136.8 461.6,308.2 655.4,506.1 64.6,66 126.2,134.9 184.5,206.5 175.1,214.7 321,453.1 431.1,707.2 36.7,84.7 69.4,171.1 97.9,258.9 135.5,417.4 177.4,858.6 270.7,1287.4 46.7,214.4 108.8,430 198.4,630.4 11.2,25.1 22.8,49.9 34.9,74.4 24.2,49.1 50.1,97.2 78.1,143.8 70,116.7 152.5,225.1 250.4,321.1 l -190.6,-32.5 c -0.2,-0.1 -0.3,-0.3 -0.5,-0.4 -313.1,-307.2 -459.4,-744 -552.6,-1172.6 -93.3,-428.7 -135.3,-869.9 -270.7,-1287.3"
         style="fill:#37702e;fill-opacity:1;fill-rule:nonzero;stroke:none"
         transform="matrix(0.13333333,0,0,-0.13333333,0,2829.3333)" />
      <path
         id="path5"
         d="m 7095.83,9963.2 c -734.87,76.3 -1436.67,436.2 -1927.52,988.4 -291.55,327.9 -507.01,715.2 -764.53,1070.5 -257.39,355.2 -566.71,696.5 -976.75,852.2 -0.18,0.1 -0.37,0.1 -0.56,0.2 l -187.67,-46.8 c 51.3,-19.4 101.11,-41.7 149.53,-66.4 145.25,-74.2 277.88,-170.9 399.77,-281.6 40.62,-36.9 80.06,-75.4 118.37,-115.1 38.31,-39.7 75.5,-80.7 111.63,-122.6 72.26,-83.8 140.3,-171.4 204.68,-260.2 32.18,-44.4 63.72,-89.3 94.83,-134.5 93.31,-135.7 182.79,-274.3 274.66,-411 52.62,-78.3 106.41,-155.6 161.77,-231.7 73.52,-101.1 150.1,-199.8 233.26,-293.3 60.55,-68.1 124.38,-133.3 191.01,-195.4 41.17,-38.3 83.7,-75.2 126.98,-111.1 383.62,-318.7 846.97,-541.7 1335.86,-640.1 90.47,-18.2 181.82,-32.2 273.68,-41.8 44.85,-4.6 89.79,-8.1 134.79,-10.7 15,-0.8 30.02,-1 45.03,-1.6 30.03,-1.2 60.05,-2.5 90.1,-2.8 18.01,-0.2 36,0.3 54.01,0.5 27.04,0.2 54.07,0.3 81.09,1.2 19.29,0.7 38.54,2.1 57.8,3.1 25.75,1.4 51.5,2.7 77.2,4.8 19.86,1.6 39.66,3.8 59.49,5.8 25.01,2.6 50.01,5 74.96,8.2 20.23,2.5 40.4,5.6 60.58,8.6 24.4,3.5 48.8,7.1 73.11,11.3 20.41,3.5 40.73,7.5 61.08,11.4 23.94,4.6 47.85,9.3 71.66,14.4 20.41,4.5 40.72,9.3 61.03,14.2 14.56,3.5 29.22,6.4 43.72,10.1 -3.29,-0.6 -6.62,-1.1 -9.92,-1.7 -281.32,-52.7 -569.96,-66 -854.73,-36.5"
         style="fill:#37702e;fill-opacity:1;fill-rule:nonzero;stroke:none"
         transform="matrix(0.13333333,0,0,-0.13333333,0,2829.3333)" />
      <path
         id="path6"
         d="m 6457.89,6709.3 c -411.38,242.2 -763.78,571.1 -1149.06,853 -385.11,281.7 -819.36,531.8 -1295.85,556 -0.23,0 -0.45,0.1 -0.68,0.1 l -178.65,-111.1 c 59.59,-3 118.6,-9.4 176.99,-18.9 175.17,-28.3 344.76,-84.1 507.93,-158 54.39,-24.7 108.06,-51.3 160.99,-79.6 158.79,-85 310.85,-185 455.32,-290.7 385.28,-281.8 737.69,-610.8 1149.06,-853 43.29,-25.5 87.19,-49.9 131.62,-73.3 88.89,-46.7 179.96,-89.2 272.82,-127.4 185.72,-76.3 378.57,-135.4 575.17,-176.7 98.3,-20.7 197.54,-36.8 297.31,-48.5 349.17,-40.9 704.76,-26.4 1048.76,46.5 48,10.1 95.73,21.5 143.19,33.9 15.72,4.1 31.23,9 46.89,13.3 31.55,8.8 63.12,17.5 94.38,27.2 18.78,5.8 37.31,12.5 55.98,18.6 27.87,9.3 55.79,18.4 83.39,28.4 19.76,7.1 39.24,15 58.86,22.5 26.13,10 52.31,20 78.17,30.7 20.12,8.3 39.96,17.3 59.91,26 24.97,10.9 49.97,21.8 74.66,33.3 20.15,9.4 40.03,19.4 59.99,29.2 24.03,11.9 48.04,23.7 71.78,36.1 19.98,10.5 39.7,21.4 59.46,32.2 23.23,12.8 46.42,25.6 69.35,38.9 19.66,11.4 39.08,23.3 58.5,35.1 13.89,8.4 28.07,16.4 41.84,25.1 -3.2,-1.8 -6.48,-3.4 -9.7,-5.1 -273.62,-148.6 -568.01,-258.8 -872.71,-323.3 -786.3,-166.4 -1633.06,-28.3 -2325.67,379.5"
         style="fill:#37702e;fill-opacity:1;fill-rule:nonzero;stroke:none"
         transform="matrix(0.13333333,0,0,-0.13333333,0,2829.3333)" />
      <path
         id="path7"
         d="m 8888.67,3005 c -479.59,167.8 -915.55,438.3 -1376.1,652.9 -460.33,214.5 -965.43,385.8 -1467.91,312.5 -0.23,0 -0.47,0 -0.71,-0.1 l -163.54,-153 v 0 c 314.2,46 630.63,0.3 936.21,-92.8 183.35,-55.8 362.79,-128.8 535.49,-209.2 115.14,-53.7 228.73,-110.8 341.86,-169 169.7,-87.2 338.33,-176.7 509.5,-260.2 114.12,-55.6 229.36,-108.5 346.8,-156.3 58.72,-23.8 117.98,-46.4 177.93,-67.4 151.4,-52.9 306.49,-94.9 463.75,-125.9 104.85,-20.6 210.66,-36.4 316.98,-47.3 53.17,-5.5 106.45,-9.7 159.82,-12.7 106.73,-6.1 213.74,-7.3 320.58,-3.7 267.17,9 533.17,48.3 791.27,117.6 154.8,41.5 306.7,93.8 454.1,156.9 0.8,0.3 1.5,0.7 2.2,1 47.2,20.3 94,41.6 140.2,64 15.9,7.7 31.4,16.2 47.2,24.1 30.8,15.5 61.7,31 92,47.5 18.5,10 36.5,20.7 54.8,31.1 27.1,15.4 54.3,30.6 81,46.7 19.2,11.6 37.9,23.8 56.8,35.8 25.2,15.8 50.5,31.6 75.3,48.1 19.3,12.9 38.1,26.4 57.2,39.6 23.8,16.6 47.6,33.1 71,50.2 19.1,14 37.8,28.6 56.6,42.9 22.6,17.4 45.2,34.7 67.5,52.5 18.7,15.1 37,30.6 55.4,46 21.6,18.1 43.2,36.3 64.3,54.9 18.2,16 36,32.4 53.8,48.7 12.8,11.7 26,23 38.6,34.9 -3,-2.5 -6.1,-4.9 -9.1,-7.4 -255,-211.7 -539.5,-387.6 -844.3,-517.9 -786.5,-336.5 -1699.09,-367.4 -2506.53,-85"
         style="fill:#37702e;fill-opacity:1;fill-rule:nonzero;stroke:none"
         transform="matrix(0.13333333,0,0,-0.13333333,0,2829.3333)" />
      <path
         id="path8"
         d="m 16799.9,6987.1 c 156.8,483.2 205.3,994 313.4,1490.5 107.9,496.2 277.3,1001.9 639.8,1357.5 -1246.7,-231.5 -2387.5,-774.8 -3278.3,-1685.4 -920.1,-940.6 -1333,-2037.8 -1517,-3332.4 43.2,-42.2 86.2,-84.4 130.1,-126.6 396.7,-72.4 805.8,-72.7 1203.6,-5.7 322.9,74.7 635.2,194.7 923.4,358.4 743.9,422.3 1321,1130 1585,1943.7"
         style="fill:#438834;fill-opacity:1;fill-rule:nonzero;stroke:none"
         transform="matrix(0.13333333,0,0,-0.13333333,0,2829.3333)" />
      <path
         id="path9"
         d="m 11847.9,7493.6 c 303.3,70.3 596.7,183 867.5,336.8 699,396.8 1241.2,1061.7 1489.2,1826.2 147.3,454.1 193,934 294.5,1400.4 101.4,466.3 260.6,941.4 601.2,1275.6 C 13928.8,12115 12857,11604.5 12020.1,10749 11151.2,9860.8 10763.8,8823.9 10592.2,7599.7 c 19.9,-29.2 39.5,-58.4 59.7,-87.5 393,-80.3 800.4,-85.2 1196,-18.6"
         style="fill:#438834;fill-opacity:1;fill-rule:nonzero;stroke:none"
         transform="matrix(0.13333333,0,0,-0.13333333,0,2829.3333)" />
      <path
         id="path10"
         d="m 9786.57,11782.1 c 548.83,919.8 1366.53,1663 2364.33,2149.9 6.8,3.3 15.3,-6.7 9.6,-11.3 -689.4,-562.4 -1427.3,-1582.1 -1870.9,-2325.3 -153.3,-256.8 -321.58,-511.9 -576.49,-678.7 -209.03,-136.8 -465.22,-205.8 -675.61,-335.9 10.59,-29 20.69,-58 31.52,-87 346.63,-64.8 704.4,-66 1052.18,-7.4 278.9,64.5 548.6,168.2 797.6,309.5 642.5,364.8 1140.9,976 1368.9,1678.8 135.4,417.4 177.4,858.6 270.7,1287.3 93.2,428.6 239.5,865.4 552.6,1172.6 -1076.8,-200 -2062.1,-669.3 -2831.4,-1455.7 -766.42,-783.5 -1125.32,-1692.7 -1292.49,-2759.2 13.68,-39 28.2,-77.8 42.33,-116.7 322.69,336.1 517.17,776.9 757.13,1179.1"
         style="fill:#438834;fill-opacity:1;fill-rule:nonzero;stroke:none"
         transform="matrix(0.13333333,0,0,-0.13333333,0,2829.3333)" />
      <path
         id="path11"
         d="m 8151.69,10557.7 c -300.43,50.5 -556.91,216.5 -800.36,390.2 -704.58,502.8 -1789.62,1140.7 -2646.8,1379.2 -7.09,1.9 -3.26,14.5 4.3,14.2 1109.28,-45.5 2156.47,-398.2 3028.32,-1020.5 374.07,-267 722.96,-585.7 1142.65,-766 -35.43,97.6 -69.5,195.3 -102.13,293.2 -557.18,821.1 -1224.55,1446.5 -2172.99,1829.2 -1020.25,411.6 -2111.06,446 -3177.65,197.1 410.04,-155.7 719.36,-497 976.75,-852.2 257.52,-355.3 472.98,-742.6 764.53,-1070.5 490.85,-552.2 1192.65,-912.1 1927.52,-988.4 284.77,-29.5 573.41,-16.2 854.73,36.5 346.54,87 677.7,234.6 972.02,437 -10.74,28.7 -20.71,57.4 -31.21,86.1 -240.94,31.4 -498,-5.7 -739.68,34.9"
         style="fill:#438834;fill-opacity:1;fill-rule:nonzero;stroke:none"
         transform="matrix(0.13333333,0,0,-0.13333333,0,2829.3333)" />
      <path
         id="path12"
         d="m 9678.15,7297.9 c -327.89,-48 -648.9,38.2 -958.97,136.7 -897.34,285.2 -2233.76,583.3 -3200.85,543.8 -7.98,-0.3 -8.22,14 -0.3,16.2 1163.66,323.4 2365.59,308 3476.07,-45.1 480.22,-152.7 951.52,-368.2 1450.6,-412.5 -47.7,70.2 -94.8,140.5 -141,210.9 -873.25,697.9 -1792.89,1145.9 -2935.06,1227.7 -1193.75,85.4 -2334.58,-243.3 -3355.66,-857.3 476.49,-24.2 910.74,-274.3 1295.85,-556 385.28,-281.9 737.68,-610.8 1149.06,-853 692.61,-407.8 1539.37,-545.9 2325.67,-379.5 304.7,64.5 599.09,174.7 872.71,323.3 329.97,206 623.73,469.5 860.93,777.8 -18.3,26.4 -36.1,52.9 -54.2,79.4 -262.5,-47 -518.56,-173.4 -784.85,-212.4"
         style="fill:#438834;fill-opacity:1;fill-rule:nonzero;stroke:none"
         transform="matrix(0.13333333,0,0,-0.13333333,0,2829.3333)" />
      <path
         id="path13"
         d="m 8061.88,13238.1 c -117.3,310 -101.93,642 -72.24,966 85.96,937.6 90.31,2306.9 -155.72,3243 -2.03,7.7 11.88,11 15.73,3.7 565.52,-1067.1 808.46,-2244.4 701.89,-3404.7 -32.39,-352.8 -96.2,-707.9 -109.14,-1060.4 3.45,-7.3 6.15,-15 7.24,-23.4 19.85,-154.9 44.47,-309.7 71.39,-464.4 571.45,1080.1 861.51,2137.8 683.83,3355.9 -172.75,1184.3 -738.57,2228 -1557.34,3093.6 78.59,-470.6 -72.51,-948.4 -265.04,-1385 -192.62,-436.8 -438.28,-851.6 -586.55,-1305.4 -249.61,-763.9 -202.85,-1620.6 128.46,-2352.9 128.38,-283.7 299.15,-547.6 502.98,-783 271.62,-277.7 591.57,-507.8 942.91,-673.3 -17.66,100.3 -33.91,200.5 -48.66,300.9 -91.75,160.7 -195,318.4 -259.74,489.4"
         style="fill:#438834;fill-opacity:1;fill-rule:nonzero;stroke:none"
         transform="matrix(0.13333333,0,0,-0.13333333,0,2829.3333)" />
      <path
         id="path14"
         d="m 12128.9,4285.7 c -332.4,-118 -685.3,-94.3 -1029.4,-55.6 -995.9,112.1 -2452.78,146.8 -3454.28,-94.4 -8.27,-2 -11.47,12.9 -3.65,16.9 1147.99,578.2 2406.03,810.8 3638.43,671.9 526.8,-59.4 1057.1,-184.8 1581.3,-132.6 -74.8,73 -148.9,146.1 -221.7,219.1 -1039.5,531.1 -2078.3,797.1 -3268.87,648.5 C 8106.76,5401.7 6983.7,4822.6 6044.66,3970.4 c 502.48,73.3 1007.58,-98 1467.91,-312.5 460.55,-214.6 896.51,-485.1 1376.1,-652.9 807.44,-282.4 1720.03,-251.5 2506.53,85 304.8,130.3 589.3,306.2 844.3,517.9 298.3,280 548.3,611.4 731.6,977.1 -27.3,26.3 -54.2,52.6 -81.2,78.9 -258.7,-104.3 -496,-284.1 -761,-378.2"
         style="fill:#438834;fill-opacity:1;fill-rule:nonzero;stroke:none"
         transform="matrix(0.13333333,0,0,-0.13333333,0,2829.3333)" />
      <path
         id="path15"
         d="m 16652.6,8661.3 c 6.6,5.3 -3.3,16.9 -11.1,13.1 -1155.3,-563.7 -2102,-1424.2 -2737.5,-2489.3 -284.6,-477 -513.5,-1001.4 -903.9,-1393.9 -5.9,-5.9 4.2,-16.6 11.4,-12 248,161.1 557.2,240.3 807.5,404 295.1,193.2 490,488.4 667.5,785.8 513.6,860.5 1367.9,2041.1 2166.1,2692.3"
         style="fill:#223c1b;fill-opacity:1;fill-rule:nonzero;stroke:none"
         transform="matrix(0.13333333,0,0,-0.13333333,0,2829.3333)" />
      <path
         id="path16"
         d="m 11403.9,7961.8 c 277.3,181.4 460.3,458.9 627.1,738.2 482.6,808.5 1285.2,1917.8 2035.3,2529.6 6.1,5.1 -3.2,15.9 -10.5,12.3 -1085.5,-529.6 -1975,-1338.1 -2572,-2338.8 -267.5,-448.2 -482.6,-940.9 -849.3,-1309.7 -5.6,-5.6 3.9,-15.6 10.6,-11.2 233.1,151.3 523.6,225.7 758.8,379.6"
         style="fill:#223c1b;fill-opacity:1;fill-rule:nonzero;stroke:none"
         transform="matrix(0.13333333,0,0,-0.13333333,0,2829.3333)" />
      <path
         id="path17"
         d="m 6795.93,16257 c 148.27,453.8 393.93,868.6 586.55,1305.4 192.53,436.6 343.63,914.4 265.04,1385 -0.04,0.2 -0.05,0.4 -0.09,0.6 l -146.88,150.7 c 49.29,-294.3 12.52,-592.4 -69,-881.3 -8.15,-28.9 -16.75,-57.6 -25.75,-86.3 -18.01,-57.4 -37.66,-114.4 -58.58,-170.8 -10.48,-28.2 -21.27,-56.3 -32.34,-84.2 -22.15,-55.9 -45.42,-111.2 -69.5,-165.8 -72.23,-163.7 -151.92,-324.4 -231.14,-485.3 -26.4,-53.6 -52.76,-107.2 -78.77,-161 -104.03,-215 -202.51,-432.1 -276.64,-659 -62.41,-191 -106.29,-387.8 -131.83,-587 -38.31,-298.8 -35.36,-602.9 8.23,-901.1 43.58,-298.1 127.82,-590.2 252.05,-864.8 0.64,-1.4 1.37,-2.8 2.02,-4.2 19.63,-43.2 40.23,-86 61.79,-128.3 7.56,-14.8 15.83,-29.3 23.63,-44 15.17,-28.6 30.24,-57.2 46.27,-85.4 9.78,-17.1 20.27,-33.9 30.37,-50.9 14.95,-25.1 29.77,-50.4 45.39,-75.1 11.27,-17.8 23.18,-35.2 34.79,-52.8 15.37,-23.3 30.63,-46.7 46.6,-69.6 12.49,-17.9 25.53,-35.4 38.37,-53.1 16,-22 31.93,-44 48.48,-65.6 13.55,-17.7 27.59,-35 41.49,-52.4 16.69,-20.9 33.37,-41.8 50.55,-62.3 14.51,-17.3 29.42,-34.2 44.27,-51.2 17.45,-20 34.93,-39.8 52.86,-59.4 15.37,-16.7 31.08,-33.2 46.79,-49.6 11.24,-11.8 22.06,-23.9 33.46,-35.5 -2.4,2.8 -4.65,5.6 -7.04,8.4 -203.83,235.4 -374.6,499.3 -502.98,783 -331.31,732.3 -378.07,1589 -128.46,2352.9"
         style="fill:#37702e;fill-opacity:1;fill-rule:nonzero;stroke:none"
         transform="matrix(0.13333333,0,0,-0.13333333,0,2829.3333)" />
      <path
         id="path18"
         d="m 10651.9,7512.2 c -20.2,29.1 -39.8,58.3 -59.7,87.5 -89.4,130.8 -177.1,262.1 -261.5,394.1 -524.75,820.9 -945.7,1656.3 -1261.68,2500 -10.83,29 -20.93,58 -31.52,87 210.39,130.1 466.58,199.1 675.61,335.9 254.91,166.8 423.19,421.9 576.49,678.7 443.6,743.2 1181.5,1762.9 1870.9,2325.3 5.7,4.6 -2.8,14.6 -9.6,11.3 -997.8,-486.9 -1815.5,-1230.1 -2364.33,-2149.9 -239.96,-402.2 -434.44,-843 -757.13,-1179.1 -14.13,38.9 -28.65,77.7 -42.33,116.7 -207.28,589.6 -362.49,1183 -466.08,1778.2 -26.92,154.7 -51.54,309.5 -71.39,464.4 -1.09,8.4 -3.79,16.1 -7.24,23.4 12.94,352.5 76.75,707.6 109.14,1060.4 106.57,1160.3 -136.37,2337.6 -701.89,3404.7 -3.85,7.3 -17.76,4 -15.73,-3.7 246.03,-936.1 241.68,-2305.4 155.72,-3243 -29.69,-324 -45.06,-656 72.24,-966 64.74,-171 167.99,-328.7 259.74,-489.4 14.75,-100.4 31,-200.6 48.66,-300.9 94.39,-535.3 230.35,-1069.1 407.39,-1599.8 32.63,-97.9 66.7,-195.6 102.13,-293.2 -419.69,180.3 -768.58,499 -1142.65,766 -871.85,622.3 -1919.04,975 -3028.32,1020.5 -7.56,0.3 -11.39,-12.3 -4.3,-14.2 857.18,-238.5 1942.22,-876.4 2646.8,-1379.2 243.45,-173.7 499.93,-339.7 800.36,-390.2 241.68,-40.6 498.74,-3.5 739.68,-34.9 10.5,-28.7 20.47,-57.4 31.21,-86.1 319.75,-853.4 745.42,-1697.9 1275.72,-2527.5 34.4,-53.9 70.1,-107.6 105.4,-161.3 46.2,-70.4 93.3,-140.7 141,-210.9 -499.08,44.3 -970.38,259.8 -1450.6,412.5 -1110.48,353.1 -2312.41,368.5 -3476.07,45.1 -7.92,-2.2 -7.68,-16.5 0.3,-16.2 967.09,39.5 2303.51,-258.6 3200.85,-543.8 310.07,-98.5 631.08,-184.7 958.97,-136.7 266.29,39 522.35,165.4 784.85,212.4 18.1,-26.5 35.9,-53 54.2,-79.4 593.1,-856.7 1295.4,-1690.6 2122.4,-2519.9 72.8,-73 146.9,-146.1 221.7,-219.1 -524.2,-52.2 -1054.5,73.2 -1581.3,132.6 -1232.4,138.9 -2490.44,-93.7 -3638.43,-671.9 -7.82,-4 -4.62,-18.9 3.65,-16.9 1001.5,241.2 2458.38,206.5 3454.28,94.4 344.1,-38.7 697,-62.4 1029.4,55.6 265,94.1 502.3,273.9 761,378.2 27,-26.3 53.9,-52.6 81.2,-78.9 252,-242.8 514.6,-485.4 788.9,-728.2 800.3,-708.7 1560.6,-1295.7 2324.2,-1794.5 13.3,-8.6 28.2,-12.8 42.9,-12.8 25.7,0 50.8,12.6 65.9,35.6 23.7,36.4 13.5,85.1 -22.8,108.8 -757.2,494.6 -1511.5,1077 -2306.1,1780.5 -269.7,238.9 -528.1,477.5 -776.2,716.3 -43.9,42.2 -86.9,84.4 -130.1,126.6 -908.1,887.6 -1670.4,1778.3 -2305.9,2694.9"
         style="fill:#223c1b;fill-opacity:1;fill-rule:nonzero;stroke:none"
         transform="matrix(0.13333333,0,0,-0.13333333,0,2829.3333)" />
    </g>
  </g>
</svg>
